<svg xmlns="http://www.w3.org/2000/svg" xmlns:xlink="http://www.w3.org/1999/xlink" width="704" height="139" viewBox="0 0 704 139">
  <defs>
    <polygon id="nhw-logo-full-a" points="0 138.228 703.227 138.228 703.227 0 0 0"/>
  </defs>
  <g fill="none" fill-rule="evenodd">
    <path fill="#00938B" d="M77.7827,15.6479 C75.9697,11.5639 70.9897,5.6939 63.4117,1.9599 C68.4207,0.1809 72.2557,0.6729 77.5957,1.3809 C83.3727,2.1479 93.3177,6.3979 98.3297,13.4889 C105.1437,23.1269 101.5407,34.1579 101.9797,39.4159 C102.9807,51.2979 116.9637,56.9589 117.1087,62.3529 C117.1917,65.5359 110.6267,69.5979 110.0817,73.1129 C109.6527,75.8599 111.3057,78.3589 111.1957,79.3479 C111.0867,80.3359 107.7727,82.0089 107.6627,83.2149 C107.5547,84.4239 111.8207,84.6439 111.8387,86.3999 C111.8577,88.7169 108.4327,93.8669 108.4327,95.5129 C108.4327,97.1589 110.1567,98.6549 110.0817,101.8839 C109.9777,106.3969 104.9477,108.2139 96.9027,110.2269 C88.8867,112.2349 78.3877,114.0319 71.8257,119.3849 C60.0837,128.9419 58.3617,137.8999 58.3617,137.8999 L35.5237,137.8999 C35.8527,133.3969 38.3187,126.8589 44.0897,120.7089 C45.7847,118.9019 50.2317,115.2039 55.9217,113.4179 C62.3997,111.3839 67.4677,111.5269 74.7237,109.8979 C82.0727,108.2489 85.3527,104.1469 85.4507,102.3509 C85.5807,99.8879 84.0587,97.2689 84.0587,95.4049 C84.0587,93.5339 87.1217,90.5289 87.3427,87.3919 C87.5587,84.3839 83.2717,83.9859 83.2887,83.1069 C83.3087,81.6169 87.2497,80.0109 87.4387,77.8339 C87.6377,75.5519 86.1167,74.0459 86.1447,72.1259 C86.1857,69.2689 92.8347,66.1899 93.1177,62.1219 C93.4977,56.6369 80.2477,48.0189 78.7857,39.1849 C77.8997,33.8319 81.9497,25.0199 77.7827,15.6479 Z"/>
    <polygon fill="#00938B" points="71.59 44.803 61.956 41.149 72.798 36.828 73.32 38.139 65.847 41.116 72.09 43.485"/>
    <path fill="#00938B" d="M70.5601 41.0366C70.5601 42.2916 69.8441 43.3106 68.9581 43.3106 68.0731 43.3106 67.3551 42.2916 67.3551 41.0366 67.3551 39.7836 68.0731 38.7636 68.9581 38.7636 69.8441 38.7636 70.5601 39.7836 70.5601 41.0366M135.7105 28.5552C135.6845 28.5472 135.6775 28.4992 135.6585 28.4752L135.6585 30.0562 131.8895 30.0562 131.8895 26.6842 135.4375 26.6842C135.2425 26.4332 135.0075 25.8832 134.9695 25.6442 134.9315 25.3812 135.5075 24.5552 135.7315 24.5682 136.1035 24.5882 136.2135 25.9392 136.3445 26.3852 136.4735 26.8322 136.9745 27.3482 137.0845 27.4442 137.1965 27.5352 136.8925 28.1862 136.6585 28.2022 136.4795 28.2162 136.4365 28.2222 136.3085 28.3682 136.1755 28.5172 135.9505 28.6472 135.7105 28.5552L135.7105 28.5552zM128.0565 26.4552L131.7745 26.4552 131.7745 22.7952 128.0565 22.7952 128.0565 26.4552zM124.2275 22.5652L127.9415 22.5652 127.9415 18.9082 124.2275 18.9082 124.2275 22.5652zM124.1705 30.1712L127.9415 30.1712 127.9415 26.7962 124.1705 26.7962 124.1705 30.1712zM120.4525 26.5402L124.1735 26.5402 124.1735 22.8802 120.4525 22.8802 120.4525 26.5402zM116.6225 22.6242L120.3365 22.6242 120.3365 18.9652 116.6225 18.9652 116.6225 22.6242zM131.8895 18.9652L135.4445 18.9652 135.4445 19.6062C135.6235 19.6132 135.7855 19.6662 135.8245 19.7452 135.9005 19.8932 135.8245 20.3202 135.8245 20.5062 135.8245 20.6902 136.3815 21.5452 136.4735 21.8222 136.5665 22.1002 136.1755 22.7862 136.0455 23.0652 135.9155 23.3432 135.8885 24.1972 135.6385 24.1222 135.4545 24.0682 134.7135 23.3432 134.6165 22.9542 134.5805 22.8042 134.5995 22.7092 134.6315 22.6242L131.8895 22.6242 131.8895 18.9652zM155.0385 38.0272L136.2375 30.1822C138.1275 27.0022 137.9265 21.6592 135.2225 18.5522L140.9395 12.3902C144.0115 9.0982 149.2795 4.0492 148.1795 2.6192 147.4975 1.7232 145.6565 1.9602 144.4485 2.1802 143.2395 2.3982 104.4905 7.7402 104.4905 7.7402 106.1185 8.7712 108.6985 12.5502 109.9575 14.6292 111.4605 17.1202 112.7525 19.1592 113.8135 21.7252 113.9415 22.0342 114.0985 22.3982 114.2725 22.7952L116.4455 22.7952 116.4455 26.4552 115.8315 26.4552C116.0785 27.0662 116.3265 27.6962 116.5645 28.3402L116.5645 26.7402 120.3365 26.7402 120.3365 30.1152 117.1855 30.1152C117.7825 31.9472 118.2365 33.7792 118.3145 35.3402 118.5305 39.7322 118.1745 43.3262 118.3565 45.6882 118.5905 48.7222 120.7035 52.3692 123.8535 55.1262 126.4245 57.3772 129.7705 60.6742 129.8665 63.4222 129.9715 66.3262 125.0975 68.3982 125.2345 71.5762 125.3195 73.5552 126.2595 75.0882 126.3315 76.7362 126.4425 79.2352 122.9165 81.1482 122.9165 82.2432 122.9165 83.3432 126.5885 84.4262 126.7085 86.0812 126.8605 88.3102 124.2155 91.5292 124.2155 94.2722 124.2155 97.0212 126.5225 100.5252 124.9935 103.1902 122.9665 106.7192 120.1155 107.6002 116.9575 108.7422 113.9165 109.8382 97.5645 113.2372 92.3265 115.6382 81.2305 120.7202 75.5775 130.1552 74.3925 138.2272L90.0985 138.2272C91.7445 131.0902 96.3555 125.9282 98.2205 124.0622 100.0885 122.1962 102.2815 120.0432 107.6635 117.9152 110.0905 116.9552 123.3665 114.0732 126.2235 113.6322 129.0755 113.1922 139.0415 109.4592 139.5085 102.7632 139.7185 99.7172 136.8175 97.1342 137.0215 93.5482 137.2285 89.9632 140.8575 88.8802 140.9005 86.7922 140.9395 85.0312 138.0285 84.7772 138.1635 83.0182 138.2705 81.6722 140.5795 81.4532 140.5665 79.4182 140.5495 77.5252 139.2895 76.3082 139.2765 74.7502 139.2585 72.3802 146.1725 70.3572 146.1785 67.5142 146.1845 65.2222 140.8055 58.3592 138.8755 55.8132 136.9865 53.3312 131.9445 46.5822 132.5735 43.0932L154.4165 40.4632C154.4165 40.4632 156.9285 40.1232 157.0655 39.5152 157.1995 38.9072 155.0385 38.0272 155.0385 38.0272L155.0385 38.0272zM58.8862 0L.0002.141.0002 137.935.0782 137.937C.0782 137.937 6.1272 125.435 17.6552 110.635 27.7442 97.678 33.7462 95.772 34.1282 89.002 34.4672 82.913 24.3772 75.275 22.3522 61.9 21.8782 58.777 26.8822 50.709 31.7122 50.57 36.0772 50.446 37.6832 57.024 43.0202 56.94 44.9582 56.911 48.8682 53.401 52.4492 49.693 55.6322 46.395 58.6632 43.445 58.7212 40.468 58.8862 32.276 47.5992 23.576 47.7412 13.568 47.8092 8.616 52.6402 2.936 58.8862 0"/>
    <polygon fill="#00938B" points="193.58 56.143 193.58 31.519 202.274 31.519 202.274 69.319 193.148 69.319 179.54 45.019 179.54 69.319 170.792 69.319 170.792 31.519 179.918 31.519"/>
    <path fill="#00938B" d="M218.7988,48.0967 C217.1788,48.0967 215.8458,48.5647 214.8018,49.5007 C213.7568,50.4377 213.2358,51.7867 213.2358,53.5507 L224.1448,53.5507 C224.1448,51.8587 223.6498,50.5267 222.6578,49.5547 C221.6688,48.5827 220.3818,48.0967 218.7988,48.0967 L218.7988,48.0967 Z M213.2358,58.3027 C213.2708,59.0947 213.3878,59.8417 213.5868,60.5437 C213.7838,61.2447 214.1078,61.8587 214.5588,62.3797 C215.0078,62.9027 215.5938,63.3167 216.3148,63.6217 C217.0328,63.9277 217.9338,64.0807 219.0148,64.0807 C220.4528,64.0807 221.5418,63.7927 222.2808,63.2167 C223.0188,62.6417 223.5318,61.9397 223.8198,61.1107 L231.9198,61.1107 C231.7398,62.3347 231.3168,63.4867 230.6518,64.5667 C229.9838,65.6467 229.1038,66.5917 228.0058,67.4017 C226.9068,68.2117 225.6108,68.8517 224.1158,69.3187 C222.6228,69.7857 220.9398,70.0207 219.0688,70.0207 C216.7998,70.0207 214.7918,69.6877 213.0468,69.0217 C211.2998,68.3557 209.8338,67.4107 208.6458,66.1867 C207.4578,64.9627 206.5568,63.5137 205.9458,61.8397 C205.3338,60.1657 205.0278,58.3217 205.0278,56.3047 C205.0278,54.3967 205.3248,52.6157 205.9188,50.9587 C206.5118,49.3027 207.3938,47.8537 208.5648,46.6117 C209.7338,45.3687 211.1738,44.3897 212.8838,43.6687 C214.5948,42.9497 216.5828,42.5887 218.8528,42.5887 C220.9028,42.5887 222.7488,42.9127 224.3868,43.5607 C226.0248,44.2087 227.4288,45.0727 228.5998,46.1527 C229.7688,47.2327 230.6688,48.4927 231.2988,49.9327 C231.9288,51.3727 232.2438,52.8847 232.2438,54.4687 C232.2438,55.0087 232.2358,55.5847 232.2168,56.1967 C232.1988,56.8097 232.1178,57.5107 231.9748,58.3027 L213.2358,58.3027 Z"/>
    <mask id="nhw-logo-full-b" fill="#fff">
      <use xlink:href="#nhw-logo-full-a"/>
    </mask>
    <path fill="#00938B" d="M235.16 69.318L243.423 69.318 243.423 43.291 235.16 43.291 235.16 69.318zM233.973 34.65C233.973 33.175 234.477 31.933 235.483 30.924 236.491 29.917 237.752 29.413 239.265 29.413 240.021 29.413 240.723 29.547 241.37 29.817 242.019 30.087 242.585 30.457 243.07 30.924 243.558 31.393 243.936 31.95 244.204 32.598 244.475 33.247 244.61 33.931 244.61 34.65 244.61 35.371 244.475 36.046 244.204 36.676 243.936 37.306 243.558 37.863 243.07 38.35 242.585 38.836 242.019 39.214 241.37 39.483 240.723 39.754 240.021 39.889 239.265 39.889 238.508 39.889 237.814 39.754 237.186 39.483 236.554 39.214 235.996 38.836 235.512 38.35 235.024 37.863 234.647 37.306 234.377 36.676 234.107 36.046 233.973 35.371 233.973 34.65L233.973 34.65zM260.5391 49.6631C259.6021 49.6631 258.7581 49.8431 258.0001 50.2021 257.2451 50.5621 256.5981 51.0491 256.0581 51.6601 255.5171 52.2731 255.1031 52.9761 254.8151 53.7671 254.5271 54.5591 254.3831 55.4051 254.3831 56.3051 254.3831 57.2051 254.5271 58.0591 254.8151 58.8691 255.1031 59.6801 255.5171 60.3821 256.0581 60.9761 256.5981 61.5691 257.2451 62.0471 258.0001 62.4061 258.7581 62.7671 259.6021 62.9461 260.5391 62.9461 261.4751 62.9461 262.3291 62.7671 263.1031 62.4061 263.8781 62.0471 264.5351 61.5691 265.0741 60.9761 265.6151 60.3821 266.0371 59.6801 266.3451 58.8691 266.6491 58.0591 266.8041 57.2051 266.8041 56.3051 266.8041 55.4051 266.6491 54.5591 266.3451 53.7671 266.0371 52.9761 265.6151 52.2731 265.0741 51.6601 264.5351 51.0491 263.8781 50.5621 263.1031 50.2021 262.3291 49.8431 261.4751 49.6631 260.5391 49.6631L260.5391 49.6631zM275.0651 69.1561C275.0651 71.5321 274.7231 73.5041 274.0391 75.0691 273.3541 76.6361 272.3281 77.9401 270.9621 78.9841 269.7361 79.9201 268.2781 80.6221 266.5871 81.0911 264.8941 81.5581 262.8421 81.7931 260.4321 81.7931 257.9821 81.7931 255.9401 81.5221 254.3031 80.9821 252.6641 80.4421 251.3061 79.7041 250.2251 78.7681 249.0731 77.7971 248.1741 76.6711 247.5241 75.3931 246.8781 74.1151 246.5171 72.7561 246.4451 71.3161L254.7071 71.3161C254.8151 72.4321 255.3451 73.4401 256.3001 74.3411 257.2531 75.2401 258.6311 75.6901 260.4321 75.6901 262.3741 75.6901 263.9231 75.2231 265.0741 74.2861 266.2271 73.3501 266.8041 71.8561 266.8041 69.8051L266.8041 65.4311C266.0831 66.6181 265.0031 67.5911 263.5621 68.3471 262.1231 69.1021 260.5581 69.4801 258.8651 69.4801 256.9931 69.4801 255.2741 69.1561 253.7081 68.5091 252.1421 67.8601 250.8001 66.9521 249.6851 65.7811 248.5691 64.6121 247.6951 63.2261 247.0651 61.6241 246.4361 60.0221 246.1201 58.2491 246.1201 56.3051 246.1201 54.3601 246.4171 52.5521 247.0121 50.8781 247.6061 49.2031 248.4611 47.7651 249.5771 46.5581 250.6931 45.3511 252.0241 44.3971 253.5731 43.6951 255.1201 42.9931 256.8491 42.6421 258.7581 42.6421 260.4121 42.6421 261.9871 43.0301 263.4821 43.8041 264.9751 44.5781 266.0831 45.6481 266.8041 47.0171L266.8041 43.2911 275.0651 43.2911 275.0651 69.1561zM279.2236 31.5185L287.2156 31.5185 287.2156 47.0705C287.9356 45.7035 289.0156 44.6225 290.4556 43.8315 291.8956 43.0395 293.6226 42.6425 295.6396 42.6425 297.3316 42.6425 298.7526 42.9045 299.9066 43.4255 301.0576 43.9485 301.9936 44.6765 302.7126 45.6125 303.5406 46.6215 304.0996 47.7905 304.3866 49.1225 304.6746 50.4555 304.8206 52.0575 304.8206 53.9285L304.8206 69.3185 296.8276 69.3185 296.8276 55.9805C296.8276 54.1095 296.4946 52.5875 295.8276 51.4175 295.1616 50.2475 293.9656 49.6635 292.2376 49.6635 290.5446 49.6635 289.2856 50.2565 288.4576 51.4445 287.6276 52.6325 287.2156 54.2355 287.2156 56.2505L287.2156 69.3185 279.2236 69.3185 279.2236 31.5185zM323.2871 62.9463C324.1861 62.9463 325.0151 62.7663 325.7701 62.4063 326.5271 62.0473 327.1741 61.5693 327.7151 60.9753 328.2541 60.3823 328.6781 59.6793 328.9831 58.8693 329.2891 58.0593 329.4431 57.2053 329.4431 56.3043 329.4431 55.4053 329.2891 54.5583 328.9831 53.7663 328.6781 52.9753 328.2541 52.2733 327.7151 51.6603 327.1741 51.0493 326.5271 50.5623 325.7701 50.2023 325.0151 49.8423 324.1861 49.6633 323.2871 49.6633 322.3501 49.6633 321.4951 49.8423 320.7211 50.2023 319.9461 50.5623 319.2911 51.0493 318.7501 51.6603 318.2111 52.2733 317.7871 52.9753 317.4821 53.7663 317.1751 54.5583 317.0231 55.4053 317.0231 56.3043 317.0231 57.2053 317.1751 58.0593 317.4821 58.8693 317.7871 59.6793 318.2111 60.3823 318.7501 60.9753 319.2911 61.5693 319.9461 62.0473 320.7211 62.4063 321.4951 62.7663 322.3501 62.9463 323.2871 62.9463L323.2871 62.9463zM317.0231 69.3183L308.7611 69.3183 308.7611 31.5183 317.0231 31.5183 317.0231 47.0163C317.3461 46.4413 317.7781 45.8833 318.3191 45.3423 318.8581 44.8023 319.4871 44.3353 320.2081 43.9383 320.9291 43.5433 321.6941 43.2283 322.5031 42.9933 323.3141 42.7593 324.1501 42.6423 325.0151 42.6423 326.8871 42.6423 328.6061 42.9933 330.1711 43.6953 331.7371 44.3973 333.0781 45.3513 334.1951 46.5573 335.3101 47.7643 336.1741 49.2033 336.7871 50.8783 337.3981 52.5513 337.7041 54.3603 337.7041 56.3043 337.7041 58.2493 337.3981 60.0573 336.7871 61.7313 336.1741 63.4053 335.3101 64.8453 334.1951 66.0513 333.0781 67.2583 331.7371 68.2123 330.1711 68.9143 328.6061 69.6153 326.8871 69.9673 325.0151 69.9673 324.1501 69.9673 323.3141 69.8493 322.5031 69.6153 321.6941 69.3813 320.9291 69.0753 320.2081 68.6973 319.4871 68.3193 318.8581 67.8703 318.3191 67.3473 317.7781 66.8263 317.3461 66.2593 317.0231 65.6463L317.0231 69.3183zM353.0947 62.9463C354.0297 62.9463 354.8837 62.7763 355.6577 62.4333 356.4327 62.0923 357.0897 61.6153 357.6287 61.0033 358.1697 60.3903 358.5917 59.6883 358.8997 58.8963 359.2037 58.1053 359.3577 57.2413 359.3577 56.3043 359.3577 55.4053 359.2037 54.5503 358.8997 53.7393 358.5917 52.9293 358.1697 52.2273 357.6287 51.6333 357.0897 51.0403 356.4327 50.5623 355.6577 50.2023 354.8837 49.8423 354.0297 49.6633 353.0947 49.6633 352.1577 49.6633 351.3117 49.8423 350.5567 50.2023 349.7987 50.5623 349.1527 51.0403 348.6117 51.6333 348.0717 52.2273 347.6577 52.9293 347.3697 53.7393 347.0817 54.5503 346.9377 55.4053 346.9377 56.3043 346.9377 57.2413 347.0817 58.1053 347.3697 58.8963 347.6577 59.6883 348.0717 60.3903 348.6117 61.0033 349.1527 61.6153 349.7987 62.0923 350.5567 62.4333 351.3117 62.7763 352.1577 62.9463 353.0947 62.9463M353.0947 70.0203C350.8617 70.0203 348.8547 69.6513 347.0737 68.9143 345.2907 68.1753 343.7787 67.1853 342.5367 65.9433 341.2947 64.7013 340.3407 63.2533 339.6737 61.5963 339.0077 59.9413 338.6747 58.1763 338.6747 56.3043 338.6747 54.4333 339.0077 52.6693 339.6737 51.0123 340.3407 49.3573 341.2947 47.9073 342.5367 46.6663 343.7787 45.4243 345.2907 44.4333 347.0737 43.6953 348.8547 42.9583 350.8617 42.5893 353.0947 42.5893 355.3617 42.5893 357.3867 42.9583 359.1687 43.6953 360.9497 44.4333 362.4617 45.4243 363.7037 46.6663 364.9467 47.9073 365.8997 49.3573 366.5667 51.0123 367.2327 52.6693 367.5657 54.4333 367.5657 56.3043 367.5657 58.1763 367.2327 59.9413 366.5667 61.5963 365.8997 63.2533 364.9467 64.7013 363.7037 65.9433 362.4617 67.1853 360.9497 68.1753 359.1687 68.9143 357.3867 69.6513 355.3617 70.0203 353.0947 70.0203M395.8613 43.291L395.8613 69.318 387.5993 69.318 387.5993 65.593C386.8793 66.961 385.7913 68.032 384.3333 68.806 382.8753 69.579 381.1203 69.967 379.0683 69.967 377.3753 69.967 375.9173 69.705 374.6943 69.184 373.4693 68.662 372.4983 67.934 371.7783 66.997 370.9493 65.989 370.4103 64.828 370.1583 63.514 369.9063 62.2 369.7793 60.606 369.7793 58.734L369.7793 43.291 377.9873 43.291 377.9873 56.629C377.9873 58.501 378.3203 60.022 378.9863 61.191 379.6533 62.362 380.8493 62.946 382.5783 62.946 384.3063 62.946 385.5753 62.353 386.3853 61.165 387.1953 59.977 387.5993 58.375 387.5993 56.358L387.5993 43.291 395.8613 43.291zM418.8662 50.7969C418.2902 50.6529 417.8042 50.5539 417.4072 50.4999 417.0122 50.4449 416.5242 50.4189 415.9492 50.4189 413.6812 50.4189 411.8622 51.0849 410.4952 52.4169 409.1272 53.7489 408.4442 55.9989 408.4442 59.1669L408.4442 69.3179 400.1812 69.3179 400.1812 43.2909 408.4442 43.2909 408.4442 47.5029C409.0552 46.2789 410.0712 45.1989 411.4952 44.2629 412.9162 43.3269 414.5452 42.8589 416.3822 42.8589 417.3532 42.8589 418.1812 43.0029 418.8662 43.2909L418.8662 50.7969zM419.999 31.5185L427.991 31.5185 427.991 47.0705C428.711 45.7035 429.791 44.6225 431.231 43.8315 432.67 43.0395 434.398 42.6425 436.415 42.6425 438.107 42.6425 439.528 42.9045 440.682 43.4255 441.833 43.9485 442.769 44.6765 443.489 45.6125 444.316 46.6215 444.874 47.7905 445.162 49.1225 445.45 50.4555 445.595 52.0575 445.595 53.9285L445.595 69.3185 437.603 69.3185 437.603 55.9805C437.603 54.1095 437.27 52.5875 436.603 51.4175 435.937 50.2475 434.741 49.6635 433.014 49.6635 431.32 49.6635 430.061 50.2565 429.232 51.4445 428.403 52.6325 427.991 54.2355 427.991 56.2505L427.991 69.3185 419.999 69.3185 419.999 31.5185zM462.1729 62.9463C463.1079 62.9463 463.9619 62.7763 464.7359 62.4333 465.5109 62.0923 466.1669 61.6153 466.7079 61.0033 467.2479 60.3903 467.6699 59.6883 467.9779 58.8963 468.2819 58.1053 468.4369 57.2413 468.4369 56.3043 468.4369 55.4053 468.2819 54.5503 467.9779 53.7393 467.6699 52.9293 467.2479 52.2273 466.7079 51.6333 466.1669 51.0403 465.5109 50.5623 464.7359 50.2023 463.9619 49.8423 463.1079 49.6633 462.1729 49.6633 461.2359 49.6633 460.3909 49.8423 459.6339 50.2023 458.8779 50.5623 458.2299 51.0403 457.6909 51.6333 457.1499 52.2273 456.7359 52.9293 456.4479 53.7393 456.1599 54.5503 456.0159 55.4053 456.0159 56.3043 456.0159 57.2413 456.1599 58.1053 456.4479 58.8963 456.7359 59.6883 457.1499 60.3903 457.6909 61.0033 458.2299 61.6153 458.8779 62.0923 459.6339 62.4333 460.3909 62.7763 461.2359 62.9463 462.1729 62.9463M462.1729 70.0203C459.9399 70.0203 457.9329 69.6513 456.1509 68.9143 454.3689 68.1753 452.8579 67.1853 451.6149 65.9433 450.3729 64.7013 449.4189 63.2533 448.7529 61.5963 448.0869 59.9413 447.7529 58.1763 447.7529 56.3043 447.7529 54.4333 448.0869 52.6693 448.7529 51.0123 449.4189 49.3573 450.3729 47.9073 451.6149 46.6663 452.8579 45.4243 454.3689 44.4333 456.1509 43.6953 457.9329 42.9583 459.9399 42.5893 462.1729 42.5893 464.4409 42.5893 466.4659 42.9583 468.2459 43.6953 470.0279 44.4333 471.5409 45.4243 472.7819 46.6663 474.0249 47.9073 474.9789 49.3573 475.6459 51.0123 476.3119 52.6693 476.6449 54.4333 476.6449 56.3043 476.6449 58.1763 476.3119 59.9413 475.6459 61.5963 474.9789 63.2533 474.0249 64.7013 472.7819 65.9433 471.5409 67.1853 470.0279 68.1753 468.2459 68.9143 466.4659 69.6513 464.4409 70.0203 462.1729 70.0203M491.8193 62.9463C492.7543 62.9463 493.6083 62.7763 494.3823 62.4333 495.1573 62.0923 495.8143 61.6153 496.3533 61.0033 496.8943 60.3903 497.3163 59.6883 497.6243 58.8963 497.9283 58.1053 498.0833 57.2413 498.0833 56.3043 498.0833 55.4053 497.9283 54.5503 497.6243 53.7393 497.3163 52.9293 496.8943 52.2273 496.3533 51.6333 495.8143 51.0403 495.1573 50.5623 494.3823 50.2023 493.6083 49.8423 492.7543 49.6633 491.8193 49.6633 490.8823 49.6633 490.0373 49.8423 489.2813 50.2023 488.5243 50.5623 487.8773 51.0403 487.3373 51.6333 486.7963 52.2273 486.3823 52.9293 486.0943 53.7393 485.8063 54.5503 485.6623 55.4053 485.6623 56.3043 485.6623 57.2413 485.8063 58.1053 486.0943 58.8963 486.3823 59.6883 486.7963 60.3903 487.3373 61.0033 487.8773 61.6153 488.5243 62.0923 489.2813 62.4333 490.0373 62.7763 490.8823 62.9463 491.8193 62.9463M491.8193 70.0203C489.5863 70.0203 487.5793 69.6513 485.7983 68.9143 484.0153 68.1753 482.5033 67.1853 481.2613 65.9433 480.0193 64.7013 479.0653 63.2533 478.3993 61.5963 477.7323 59.9413 477.3993 58.1763 477.3993 56.3043 477.3993 54.4333 477.7323 52.6693 478.3993 51.0123 479.0653 49.3573 480.0193 47.9073 481.2613 46.6663 482.5033 45.4243 484.0153 44.4333 485.7983 43.6953 487.5793 42.9583 489.5863 42.5893 491.8193 42.5893 494.0873 42.5893 496.1113 42.9583 497.8933 43.6953 499.6743 44.4333 501.1863 45.4243 502.4283 46.6663 503.6713 47.9073 504.6243 49.3573 505.2913 51.0123 505.9583 52.6693 506.2913 54.4333 506.2913 56.3043 506.2913 58.1763 505.9583 59.9413 505.2913 61.5963 504.6243 63.2533 503.6713 64.7013 502.4283 65.9433 501.1863 67.1853 499.6743 68.1753 497.8933 68.9143 496.1113 69.6513 494.0873 70.0203 491.8193 70.0203M521.625 62.9463C522.562 62.9463 523.407 62.7663 524.163 62.4063 524.92 62.0473 525.568 61.5693 526.107 60.9753 526.648 60.3823 527.07 59.6793 527.377 58.8693 527.683 58.0593 527.836 57.2053 527.836 56.3043 527.836 55.4053 527.683 54.5583 527.377 53.7663 527.07 52.9753 526.648 52.2733 526.107 51.6603 525.568 51.0493 524.92 50.5623 524.163 50.2023 523.407 49.8423 522.562 49.6633 521.625 49.6633 520.689 49.6633 519.845 49.8423 519.087 50.2023 518.332 50.5623 517.684 51.0493 517.145 51.6603 516.604 52.2733 516.181 52.9753 515.874 53.7663 515.569 54.5583 515.416 55.4053 515.416 56.3043 515.416 57.2053 515.569 58.0593 515.874 58.8693 516.181 59.6793 516.604 60.3823 517.145 60.9753 517.684 61.5693 518.332 62.0473 519.087 62.4063 519.845 62.7663 520.689 62.9463 521.625 62.9463L521.625 62.9463zM527.836 65.6463C527.512 66.2593 527.079 66.8263 526.54 67.3473 525.999 67.8703 525.378 68.3193 524.678 68.6973 523.975 69.0753 523.209 69.3813 522.383 69.6153 521.554 69.8493 520.726 69.9673 519.898 69.9673 518.025 69.9673 516.308 69.6153 514.741 68.9143 513.175 68.2123 511.833 67.2583 510.719 66.0513 509.603 64.8453 508.737 63.4053 508.125 61.7313 507.514 60.0573 507.208 58.2493 507.208 56.3043 507.208 54.3603 507.514 52.5513 508.125 50.8783 508.737 49.2033 509.603 47.7643 510.719 46.5573 511.833 45.3513 513.175 44.3973 514.741 43.6953 516.308 42.9933 518.025 42.6423 519.898 42.6423 520.726 42.6423 521.554 42.7593 522.383 42.9933 523.209 43.2283 523.975 43.5433 524.678 43.9383 525.378 44.3353 525.999 44.8023 526.54 45.3423 527.079 45.8833 527.512 46.4413 527.836 47.0163L527.836 31.5183 536.099 31.5183 536.099 69.3183 527.836 69.3183 527.836 65.6463z" mask="url(#nhw-logo-full-b)"/>
    <polygon fill="#00938B" points="575.302 45.559 567.795 69.319 560.614 69.319 547.276 31.519 556.509 31.519 564.233 56.305 571.9 31.519 578.65 31.519 586.371 56.305 594.04 31.519 603.275 31.519 589.937 69.319 582.808 69.319" mask="url(#nhw-logo-full-b)"/>
    <path fill="#00938B" d="M612.5068 62.9463C613.4428 62.9463 614.2878 62.7663 615.0448 62.4063 615.7998 62.0473 616.4488 61.5693 616.9888 60.9753 617.5278 60.3823 617.9518 59.6793 618.2578 58.8693 618.5628 58.0593 618.7158 57.2053 618.7158 56.3043 618.7158 55.4053 618.5628 54.5583 618.2578 53.7663 617.9518 52.9753 617.5278 52.2733 616.9888 51.6603 616.4488 51.0493 615.7998 50.5623 615.0448 50.2023 614.2878 49.8423 613.4428 49.6633 612.5068 49.6633 611.5698 49.6633 610.7248 49.8423 609.9688 50.2023 609.2118 50.5623 608.5658 51.0493 608.0248 51.6603 607.4858 52.2733 607.0618 52.9753 606.7548 53.7663 606.4488 54.5583 606.2958 55.4053 606.2958 56.3043 606.2958 57.2053 606.4488 58.0593 606.7548 58.8693 607.0618 59.6793 607.4858 60.3823 608.0248 60.9753 608.5658 61.5693 609.2118 62.0473 609.9688 62.4063 610.7248 62.7663 611.5698 62.9463 612.5068 62.9463L612.5068 62.9463zM626.9788 43.2913L626.9788 69.3183 618.7158 69.3183 618.7158 65.6463C618.3938 66.2593 617.9608 66.8263 617.4198 67.3473 616.8798 67.8703 616.2588 68.3193 615.5578 68.6973 614.8568 69.0753 614.0908 69.3813 613.2638 69.6153 612.4338 69.8493 611.6078 69.9673 610.7778 69.9673 608.9068 69.9673 607.1878 69.6153 605.6208 68.9143 604.0568 68.2123 602.7148 67.2583 601.5998 66.0513 600.4828 64.8453 599.6188 63.4053 599.0068 61.7313 598.3948 60.0573 598.0878 58.2493 598.0878 56.3043 598.0878 54.3603 598.3948 52.5513 599.0068 50.8783 599.6188 49.2033 600.4828 47.7643 601.5998 46.5573 602.7148 45.3513 604.0568 44.3973 605.6208 43.6953 607.1878 42.9933 608.9068 42.6423 610.7778 42.6423 611.6078 42.6423 612.4338 42.7593 613.2638 42.9933 614.0908 43.2283 614.8568 43.5433 615.5578 43.9383 616.2588 44.3353 616.8798 44.8023 617.4198 45.3423 617.9608 45.8833 618.3938 46.4413 618.7158 47.0163L618.7158 43.2913 626.9788 43.2913zM647.5527 69.3183C646.9407 69.4263 646.1747 69.5253 645.2577 69.6153 644.3397 69.7053 643.2687 69.7513 642.0447 69.7513 641.0737 69.7513 640.0457 69.6773 638.9657 69.5343 637.8867 69.3903 636.8867 69.0213 635.9697 68.4273 635.0507 67.8343 634.2947 66.9163 633.7017 65.6733 633.1077 64.4313 632.8117 62.7303 632.8117 60.5703L632.8117 49.4463 628.7067 49.4463 628.7067 43.2913 632.8117 43.2913 632.8117 35.5683 641.0197 35.5683 641.0197 43.2913 646.9577 43.2913 646.9577 49.4463 641.0197 49.4463 641.0197 58.7153C641.0197 59.6863 641.1077 60.4593 641.2877 61.0343 641.4687 61.6093 641.7197 62.0483 642.0447 62.3543 642.3687 62.6603 642.7457 62.8663 643.1787 62.9743 643.6117 63.0823 644.0777 63.1353 644.5827 63.1353L646.1497 63.1353C646.6897 63.1353 647.1567 63.0903 647.5527 63.0013L647.5527 69.3183zM666.7227 53.4971C666.5407 52.3451 666.0657 51.4091 665.2907 50.6881 664.5157 49.9691 663.2837 49.6081 661.5917 49.6081 660.6197 49.6081 659.7647 49.7891 659.0277 50.1481 658.2877 50.5091 657.6857 50.9951 657.2187 51.6061 656.7487 52.2191 656.3997 52.9301 656.1647 53.7391 655.9307 54.5501 655.8147 55.4051 655.8147 56.3051 655.8147 57.2051 655.9307 58.0591 656.1647 58.8691 656.3997 59.6801 656.7587 60.3911 657.2447 61.0031 657.7317 61.6151 658.3617 62.1011 659.1357 62.4611 659.9087 62.8211 660.8367 63.0011 661.9157 63.0011 663.3547 63.0011 664.4357 62.7031 665.1567 62.1091 665.8747 61.5161 666.4157 60.6611 666.7757 59.5451L675.0367 59.5451C674.8217 61.0211 674.3907 62.3981 673.7417 63.6761 673.0947 64.9541 672.2117 66.0601 671.0957 66.9971 669.9797 67.9341 668.6197 68.6711 667.0197 69.2111 665.4157 69.7511 663.5907 70.0201 661.5367 70.0201 659.2707 70.0201 657.2637 69.6431 655.5167 68.8871 653.7707 68.1311 652.3037 67.1231 651.1167 65.8621 649.9287 64.6021 649.0367 63.1441 648.4427 61.4881 647.8497 59.8331 647.5527 58.1051 647.5527 56.3051 647.5527 54.5051 647.8497 52.7771 648.4427 51.1201 649.0367 49.4651 649.9287 48.0071 651.1167 46.7471 652.3037 45.4871 653.7707 44.4781 655.5167 43.7231 657.2637 42.9671 659.2707 42.5891 661.5367 42.5891 663.7337 42.5891 665.6417 42.8941 667.2617 43.5071 668.8827 44.1191 670.2417 44.9291 671.3397 45.9361 672.4367 46.9451 673.2827 48.1051 673.8777 49.4201 674.4707 50.7341 674.8397 52.0931 674.9837 53.4971L666.7227 53.4971zM677.6299 31.5185L685.6229 31.5185 685.6229 47.0705C686.3419 45.7035 687.4229 44.6225 688.8619 43.8315 690.3029 43.0395 692.0289 42.6425 694.0459 42.6425 695.7379 42.6425 697.1589 42.9045 698.3129 43.4255 699.4649 43.9485 700.3999 44.6765 701.1199 45.6125 701.9489 46.6215 702.5069 47.7905 702.7949 49.1225 703.0829 50.4555 703.2279 52.0575 703.2279 53.9285L703.2279 69.3185 695.2349 69.3185 695.2349 55.9805C695.2349 54.1095 694.9009 52.5875 694.2359 51.4175 693.5689 50.2475 692.3729 49.6635 690.6459 49.6635 688.9519 49.6635 687.6919 50.2565 686.8649 51.4445 686.0359 52.6325 685.6229 54.2355 685.6229 56.2505L685.6229 69.3185 677.6299 69.3185 677.6299 31.5185z" mask="url(#nhw-logo-full-b)"/>
    <polygon fill="#58585B" points="185.424 114.899 185.424 118.589 171.024 118.589 171.024 87.089 175.119 87.089 175.119 114.899" mask="url(#nhw-logo-full-b)"/>
    <path fill="#58585B" d="M196.313 100.6348C194.543 100.6348 193.103 101.1378 191.994 102.1428 190.883 103.1478 190.298 104.5798 190.239 106.4408L202.074 106.4408C202.074 104.6398 201.526 103.2218 200.431 102.1878 199.336 101.1528 197.963 100.6348 196.313 100.6348L196.313 100.6348zM190.194 109.4088C190.223 110.2808 190.366 111.0968 190.622 111.8628 190.876 112.6278 191.251 113.3018 191.747 113.8878 192.241 114.4718 192.878 114.9388 193.659 115.2818 194.438 115.6278 195.399 115.7998 196.539 115.7998 198.069 115.7998 199.231 115.4778 200.026 114.8328 200.821 114.1878 201.383 113.4308 201.713 112.5598L205.674 112.5598C205.494 113.4308 205.163 114.2548 204.684 115.0338 204.204 115.8158 203.573 116.5048 202.793 117.1048 202.013 117.7048 201.098 118.1848 200.049 118.5448 198.999 118.9058 197.829 119.0848 196.539 119.0848 194.829 119.0848 193.329 118.7998 192.039 118.2298 190.749 117.6598 189.683 116.8958 188.844 115.9348 188.003 114.9758 187.374 113.8428 186.954 112.5368 186.533 111.2328 186.324 109.8448 186.324 108.3748 186.324 106.8448 186.549 105.4208 186.999 104.0998 187.449 102.7808 188.101 101.6398 188.956 100.6798 189.811 99.7198 190.861 98.9698 192.106 98.4298 193.35 97.8898 194.784 97.6198 196.404 97.6198 197.723 97.6198 198.961 97.8528 200.116 98.3178 201.27 98.7818 202.276 99.4358 203.131 100.2748 203.987 101.1148 204.653 102.0968 205.133 103.2218 205.614 104.3468 205.854 105.5558 205.854 106.8448 205.854 107.1458 205.846 107.5048 205.831 107.9248 205.816 108.3448 205.764 108.8408 205.674 109.4088L190.194 109.4088zM220.3887 118.5898C219.9987 118.6498 219.4817 118.7098 218.8357 118.7708 218.1907 118.8288 217.5367 118.8608 216.8777 118.8608 216.2487 118.8608 215.5577 118.7998 214.8077 118.6798 214.0577 118.5608 213.3597 118.2678 212.7157 117.8018 212.0707 117.3368 211.5297 116.6258 211.0967 115.6648 210.6607 114.7048 210.4437 113.3858 210.4437 111.7048L210.4437 101.4438 206.6627 101.4438 206.6627 98.1588 210.4437 98.1588 210.4437 91.2748 214.3577 91.2748 214.3577 98.1588 219.6687 98.1588 219.6687 101.4438 214.3577 101.4438 214.3577 110.8188C214.3577 111.8068 214.4407 112.5908 214.6067 113.1748 214.7697 113.7578 215.0027 114.2058 215.3037 114.5208 215.6027 114.8338 215.9557 115.0358 216.3617 115.1258 216.7657 115.2158 217.2237 115.2598 217.7327 115.2598L219.1517 115.2598C219.6747 115.2598 220.0887 115.2148 220.3887 115.1248L220.3887 118.5898zM221.5137 88.3496C221.5137 87.5106 221.8057 86.7896 222.3907 86.1906 222.9747 85.5896 223.7187 85.2896 224.6177 85.2896 225.7277 85.2896 226.6047 85.6946 227.2497 86.5046 227.8957 87.3156 228.2187 88.3796 228.2187 89.7006 228.2187 92.0706 227.6487 93.7356 226.5077 94.6946 225.3677 95.6556 223.7917 96.1346 221.7827 96.1346L221.7827 94.2896C222.5627 94.2896 223.2157 94.1626 223.7417 93.9076 224.2657 93.6536 224.6487 93.3156 224.8887 92.8956 225.1277 92.5346 225.2937 92.2046 225.3827 91.9056 225.4737 91.6056 225.5187 91.3056 225.5187 91.0046 225.4577 91.0946 225.3307 91.1696 225.1357 91.2296 224.9407 91.2896 224.7377 91.3196 224.5287 91.3196 223.6277 91.3196 222.8997 91.0356 222.3447 90.4646 221.7897 89.8956 221.5137 89.1906 221.5137 88.3496M240.8194 107.2051C241.5984 107.4451 242.3564 107.7001 243.0904 107.9701 243.8254 108.2391 244.4784 108.5851 245.0484 109.0051 245.6184 109.4251 246.0754 109.9501 246.4214 110.5801 246.7654 111.2101 246.9374 112.0051 246.9374 112.9651 246.9374 113.9851 246.7364 114.8781 246.3314 115.6431 245.9264 116.4071 245.3644 117.0451 244.6434 117.5551 243.9234 118.0651 243.0754 118.4481 242.1014 118.7021 241.1254 118.9571 240.0684 119.0851 238.9284 119.0851 237.7874 119.0851 236.7084 118.9341 235.6874 118.6351 234.6694 118.3351 233.7764 117.8781 233.0114 117.2631 232.2454 116.6471 231.6314 115.8751 231.1664 114.9441 230.7004 114.0151 230.4684 112.9351 230.4684 111.7051L234.2944 111.7051C234.2944 113.2651 234.7504 114.3681 235.6664 115.0131 236.5814 115.6571 237.7284 115.9791 239.1084 115.9791 240.3694 115.9791 241.3664 115.7481 242.1014 115.2821 242.8364 114.8171 243.2034 114.0751 243.2034 113.0551 243.2034 112.4851 243.0534 112.0271 242.7534 111.6831 242.4534 111.3381 242.0264 111.0301 241.4704 110.7601 240.9164 110.4891 240.2334 110.2421 239.4234 110.0181 238.6144 109.7921 237.6984 109.5001 236.6784 109.1401 235.8984 108.8991 235.1714 108.6451 234.4954 108.3751 233.8204 108.1041 233.2364 107.7611 232.7414 107.3401 232.2454 106.9201 231.8564 106.4101 231.5704 105.8091 231.2864 105.2101 231.1434 104.4451 231.1434 103.5151 231.1434 102.5561 231.3394 101.7081 231.7284 100.9721 232.1184 100.2371 232.6574 99.6221 233.3484 99.1281 234.0394 98.6321 234.8484 98.2581 235.7784 98.0031 236.7084 97.7481 237.6984 97.6201 238.7494 97.6201 239.8574 97.6201 240.8934 97.7851 241.8534 98.1141 242.8124 98.4451 243.6454 98.9181 244.3514 99.5321 245.0554 100.1471 245.6114 100.8761 246.0154 101.7151 246.4214 102.5561 246.6244 103.4851 246.6244 104.5051L242.8434 104.5051C242.8434 103.3061 242.4914 102.3831 241.7864 101.7371 241.0814 101.0931 240.0534 100.7701 238.7034 100.7701 237.6244 100.7701 236.7234 101.0111 236.0034 101.4891 235.2834 101.9701 234.9234 102.6751 234.9234 103.6041 234.9234 104.1151 235.0494 104.5351 235.3064 104.8641 235.5604 105.1951 235.9434 105.4791 236.4534 105.7201 236.9644 105.9601 237.5784 106.1921 238.2984 106.4171 239.0184 106.6431 239.8574 106.9051 240.8194 107.2051" mask="url(#nhw-logo-full-b)"/>
    <polygon fill="#58585B" points="272.407 102.435 266.691 118.59 263.991 118.59 256.072 98.16 260.258 98.16 265.342 112.56 270.472 98.16 274.342 98.16 279.428 112.56 284.557 98.16 288.741 98.16 280.822 118.59 278.123 118.59" mask="url(#nhw-logo-full-b)"/>
    <path fill="#58585B" d="M299.2275 115.5752C300.2775 115.5752 301.2295 115.3802 302.0845 114.9892 302.9405 114.6002 303.6655 114.0832 304.2665 113.4372 304.8665 112.7922 305.3315 112.0352 305.6625 111.1652 305.9915 110.2952 306.1575 109.3642 306.1575 108.3752 306.1575 107.3852 305.9915 106.4552 305.6625 105.5852 305.3315 104.7152 304.8665 103.9502 304.2665 103.2902 303.6655 102.6302 302.9405 102.1042 302.0845 101.7152 301.2295 101.3252 300.2775 101.1302 299.2275 101.1302 298.1775 101.1302 297.2325 101.3252 296.3915 101.7152 295.5525 102.1042 294.8405 102.6302 294.2535 103.2902 293.6695 103.9502 293.2115 104.7152 292.8825 105.5852 292.5525 106.4552 292.3865 107.3852 292.3865 108.3752 292.3865 109.3642 292.5525 110.2952 292.8825 111.1652 293.2115 112.0352 293.6695 112.7922 294.2535 113.4372 294.8405 114.0832 295.5525 114.6002 296.3915 114.9892 297.2325 115.3802 298.1775 115.5752 299.2275 115.5752L299.2275 115.5752zM310.0285 98.1592L310.0285 118.5902 306.1575 118.5902 306.1575 115.0342C305.4985 116.2952 304.5155 117.2842 303.2095 118.0052 301.9045 118.7242 300.5025 119.0852 299.0025 119.0852 297.4415 119.0852 296.0165 118.8002 294.7275 118.2292 293.4365 117.6602 292.3345 116.8802 291.4195 115.8892 290.5035 114.8992 289.7915 113.7612 289.2825 112.4702 288.7725 111.1802 288.5165 109.8152 288.5165 108.3752 288.5165 106.9342 288.7725 105.5622 289.2825 104.2572 289.7915 102.9522 290.5035 101.8042 291.4195 100.8152 292.3345 99.8252 293.4365 99.0452 294.7275 98.4742 296.0165 97.9052 297.4415 97.6202 299.0025 97.6202 300.5025 97.6202 301.9045 97.9792 303.2095 98.7002 304.5155 99.4202 305.4985 100.4092 306.1575 101.6702L306.1575 98.1592 310.0285 98.1592zM325.9121 118.5898C325.5201 118.6498 325.0031 118.7098 324.3581 118.7708 323.7131 118.8288 323.0611 118.8608 322.4021 118.8608 321.7721 118.8608 321.0821 118.7998 320.3321 118.6798 319.5821 118.5608 318.8841 118.2678 318.2391 117.8018 317.5941 117.3368 317.0541 116.6258 316.6191 115.6648 316.1831 114.7048 315.9661 113.3858 315.9661 111.7048L315.9661 101.4438 312.1861 101.4438 312.1861 98.1588 315.9661 98.1588 315.9661 91.2748 319.8821 91.2748 319.8821 98.1588 325.1911 98.1588 325.1911 101.4438 319.8821 101.4438 319.8821 110.8188C319.8821 111.8068 319.9651 112.5908 320.1291 113.1748 320.2941 113.7578 320.5271 114.2058 320.8271 114.5208 321.1271 114.8338 321.4781 115.0358 321.8841 115.1258 322.2901 115.2158 322.7461 115.2598 323.2571 115.2598L324.6741 115.2598C325.1991 115.2598 325.6111 115.2148 325.9121 115.1248L325.9121 118.5898zM342.2021 105.5849C342.0521 104.3249 341.5491 103.2679 340.6941 102.4119 339.8401 101.5579 338.4501 101.1299 336.5321 101.1299 335.4811 101.1299 334.5571 101.3249 333.7641 101.7149 332.9691 102.1049 332.3071 102.6379 331.7831 103.3129 331.2581 103.9869 330.8611 104.7609 330.5911 105.6299 330.3211 106.5009 330.1861 107.4149 330.1861 108.3749 330.1861 109.3349 330.3141 110.2499 330.5691 111.1199 330.8241 111.9899 331.2211 112.7549 331.7621 113.4149 332.3021 114.0749 332.9831 114.6009 333.8081 114.9889 334.6331 115.3799 335.6161 115.5749 336.7571 115.5749 338.4661 115.5749 339.7261 115.2149 340.5371 114.4949 341.3461 113.7739 341.9161 112.7999 342.2461 111.5689L346.1621 111.5689C346.0121 112.6199 345.6951 113.6029 345.2161 114.5179 344.7361 115.4329 344.0981 116.2279 343.3041 116.9019 342.5081 117.5769 341.5411 118.1099 340.4021 118.4999 339.2621 118.8899 337.9561 119.0849 336.4861 119.0849 334.8061 119.0849 333.3371 118.7839 332.0771 118.1849 330.8161 117.5849 329.7521 116.7899 328.8821 115.7999 328.0121 114.8099 327.3581 113.6699 326.9241 112.3799 326.4891 111.0909 326.2701 109.7549 326.2701 108.3749 326.2701 106.9949 326.4891 105.6599 326.9241 104.3699 327.3581 103.0799 328.0041 101.9329 328.8581 100.9269 329.7151 99.9229 330.7781 99.1199 332.0541 98.5209 333.3281 97.9199 334.7911 97.6199 336.4411 97.6199 338.0911 97.6199 339.5081 97.8529 340.6941 98.3169 341.8781 98.7819 342.8531 99.3829 343.6191 100.1169 344.3841 100.8529 344.9701 101.6999 345.3741 102.6589 345.7781 103.6199 346.0271 104.5949 346.1161 105.5849L342.2021 105.5849zM349.4004 87.0898L353.3154 87.0898 353.3154 101.7598C353.9164 100.4998 354.8314 99.4948 356.0614 98.7448 357.2914 97.9948 358.7754 97.6198 360.5154 97.6198 361.9574 97.6198 363.1864 97.8528 364.2074 98.3178 365.2264 98.7818 366.0364 99.4498 366.6364 100.3188 367.2064 101.1008 367.6114 101.9698 367.8514 102.9298 368.0904 103.8898 368.2124 105.0898 368.2124 106.5298L368.2124 118.5898 364.2964 118.5898 364.2964 107.7448C364.2964 106.8158 364.2074 105.9388 364.0254 105.1118 363.8454 104.2878 363.5534 103.5828 363.1494 102.9968 362.7444 102.4118 362.2114 101.9478 361.5514 101.6028 360.8904 101.2578 360.0814 101.0848 359.1214 101.0848 358.1314 101.0848 357.2754 101.2798 356.5564 101.6698 355.8374 102.0598 355.2364 102.5768 354.7564 103.2218 354.2754 103.8678 353.9164 104.6108 353.6764 105.4498 353.4364 106.2898 353.3154 107.1588 353.3154 108.0598L353.3154 118.5898 349.4004 118.5898 349.4004 87.0898zM390.7539 115.5752C391.8039 115.5752 392.7579 115.3802 393.6109 114.9892 394.4669 114.6002 395.1939 114.0832 395.7949 113.4372 396.3949 112.7922 396.8579 112.0352 397.1909 111.1652 397.5199 110.2952 397.6859 109.3642 397.6859 108.3752 397.6859 107.3852 397.5199 106.4552 397.1909 105.5852 396.8579 104.7152 396.3949 103.9502 395.7949 103.2902 395.1939 102.6302 394.4669 102.1042 393.6109 101.7152 392.7579 101.3252 391.8039 101.1302 390.7539 101.1302 389.7039 101.1302 388.7589 101.3252 387.9199 101.7152 387.0789 102.1042 386.3669 102.6302 385.7819 103.2902 385.1959 103.9502 384.7399 104.7152 384.4099 105.5852 384.0789 106.4552 383.9149 107.3852 383.9149 108.3752 383.9149 109.3642 384.0789 110.2952 384.4099 111.1652 384.7399 112.0352 385.1959 112.7922 385.7819 113.4372 386.3669 114.0832 387.0789 114.6002 387.9199 114.9892 388.7589 115.3802 389.7039 115.5752 390.7539 115.5752M390.7539 119.0852C389.1339 119.0852 387.6649 118.8002 386.3449 118.2292 385.0249 117.6602 383.8999 116.8802 382.9699 115.8892 382.0399 114.8992 381.3199 113.7612 380.8109 112.4702 380.2989 111.1802 380.0449 109.8152 380.0449 108.3752 380.0449 106.9342 380.2989 105.5622 380.8109 104.2572 381.3199 102.9522 382.0399 101.8042 382.9699 100.8152 383.8999 99.8252 385.0249 99.0452 386.3449 98.4742 387.6649 97.9052 389.1339 97.6202 390.7539 97.6202 392.4029 97.6202 393.8899 97.9052 395.2099 98.4742 396.5289 99.0452 397.6619 99.8252 398.6079 100.8152 399.5529 101.8042 400.2779 102.9522 400.7899 104.2572 401.2989 105.5622 401.5559 106.9342 401.5559 108.3752 401.5559 109.8152 401.2989 111.1802 400.7899 112.4702 400.2779 113.7612 399.5529 114.8992 398.6079 115.8892 397.6619 116.8802 396.5289 117.6602 395.2099 118.2292 393.8899 118.8002 392.4029 119.0852 390.7539 119.0852M423.0654 98.1592L423.0654 118.5902 419.1494 118.5902 419.1494 114.9442C418.5484 116.2052 417.6274 117.2102 416.3824 117.9602 415.1364 118.7102 413.6604 119.0852 411.9494 119.0852 410.5104 119.0852 409.2724 118.8522 408.2374 118.3882 407.2034 117.9232 406.3834 117.2702 405.7854 116.4302 405.2144 115.6492 404.8184 114.7802 404.5914 113.8192 404.3674 112.8602 404.2554 111.6592 404.2554 110.2202L404.2554 98.1592 408.1694 98.1592 408.1694 108.9602C408.1694 109.9212 408.2604 110.8052 408.4404 111.6142 408.6204 112.4252 408.9124 113.1222 409.3184 113.7082 409.7224 114.2922 410.2464 114.7582 410.8914 115.1022 411.5374 115.4482 412.3394 115.6202 413.2994 115.6202 414.2904 115.6202 415.1524 115.4322 415.8864 115.0572 416.6234 114.6822 417.2294 114.1732 417.7104 113.5272 418.1894 112.8832 418.5484 112.1392 418.7904 111.3002 419.0294 110.4602 419.1494 109.5752 419.1494 108.6452L419.1494 98.1592 423.0654 98.1592zM438.9492 118.5898C438.5582 118.6498 438.0412 118.7098 437.3972 118.7708 436.7522 118.8288 436.0992 118.8608 435.4402 118.8608 434.8102 118.8608 434.1202 118.7998 433.3702 118.6798 432.6202 118.5608 431.9232 118.2678 431.2772 117.8018 430.6322 117.3368 430.0912 116.6258 429.6572 115.6648 429.2222 114.7048 429.0042 113.3858 429.0042 111.7048L429.0042 101.4438 425.2242 101.4438 425.2242 98.1588 429.0042 98.1588 429.0042 91.2748 432.9202 91.2748 432.9202 98.1588 438.2292 98.1588 438.2292 101.4438 432.9202 101.4438 432.9202 110.8188C432.9202 111.8068 433.0032 112.5908 433.1672 113.1748 433.3322 113.7578 433.5652 114.2058 433.8652 114.5208 434.1652 114.8338 434.5162 115.0358 434.9232 115.1258 435.3282 115.2158 435.7852 115.2598 436.2952 115.2598L437.7122 115.2598C438.2362 115.2598 438.6492 115.2148 438.9492 115.1248L438.9492 118.5898zM461.6279 90.6904C461.2689 90.5704 460.9079 90.4804 460.5489 90.4194 460.1879 90.3604 459.7829 90.3304 459.3329 90.3304 458.9119 90.3304 458.4919 90.3604 458.0739 90.4194 457.6529 90.4804 457.2709 90.6374 456.9269 90.8924 456.5809 91.1474 456.3039 91.5304 456.0939 92.0404 455.8829 92.5494 455.7779 93.2704 455.7779 94.2004L455.7779 98.1594 461.6279 98.1594 461.6279 101.4444 455.7779 101.4444 455.7779 118.5894 451.8639 118.5894 451.8639 101.4444 447.4529 101.4444 447.4529 98.1594 451.8639 98.1594 451.8639 94.6044C451.8639 92.7454 452.1109 91.2974 452.6069 90.2624 453.1009 89.2274 453.7079 88.4554 454.4289 87.9444 455.1489 87.4344 455.9129 87.1204 456.7239 87.0004 457.5329 86.8794 458.2369 86.8194 458.8379 86.8194 459.4689 86.8194 460.0159 86.8724 460.4819 86.9774 460.9449 87.0834 461.3279 87.2104 461.6279 87.3604L461.6279 90.6904zM472.4277 115.5752C473.4777 115.5752 474.4307 115.3802 475.2847 114.9892 476.1407 114.6002 476.8657 114.0832 477.4667 113.4372 478.0667 112.7922 478.5317 112.0352 478.8627 111.1652 479.1917 110.2952 479.3577 109.3642 479.3577 108.3752 479.3577 107.3852 479.1917 106.4552 478.8627 105.5852 478.5317 104.7152 478.0667 103.9502 477.4667 103.2902 476.8657 102.6302 476.1407 102.1042 475.2847 101.7152 474.4307 101.3252 473.4777 101.1302 472.4277 101.1302 471.3777 101.1302 470.4327 101.3252 469.5917 101.7152 468.7527 102.1042 468.0407 102.6302 467.4537 103.2902 466.8697 103.9502 466.4117 104.7152 466.0827 105.5852 465.7527 106.4552 465.5867 107.3852 465.5867 108.3752 465.5867 109.3642 465.7527 110.2952 466.0827 111.1652 466.4117 112.0352 466.8697 112.7922 467.4537 113.4372 468.0407 114.0832 468.7527 114.6002 469.5917 114.9892 470.4327 115.3802 471.3777 115.5752 472.4277 115.5752M472.4277 119.0852C470.8077 119.0852 469.3367 118.8002 468.0167 118.2292 466.6967 117.6602 465.5717 116.8802 464.6417 115.8892 463.7117 114.8992 462.9917 113.7612 462.4827 112.4702 461.9727 111.1802 461.7167 109.8152 461.7167 108.3752 461.7167 106.9342 461.9727 105.5622 462.4827 104.2572 462.9917 102.9522 463.7117 101.8042 464.6417 100.8152 465.5717 99.8252 466.6967 99.0452 468.0167 98.4742 469.3367 97.9052 470.8077 97.6202 472.4277 97.6202 474.0767 97.6202 475.5617 97.9052 476.8827 98.4742 478.2027 99.0452 479.3357 99.8252 480.2797 100.8152 481.2247 101.8042 481.9517 102.9522 482.4617 104.2572 482.9727 105.5622 483.2287 106.9342 483.2287 108.3752 483.2287 109.8152 482.9727 111.1802 482.4617 112.4702 481.9517 113.7612 481.2247 114.8992 480.2797 115.8892 479.3357 116.8802 478.2027 117.6602 476.8827 118.2292 475.5617 118.8002 474.0767 119.0852 472.4277 119.0852M498.9785 101.7598C498.5575 101.6698 498.2195 101.6108 497.9655 101.5798 497.7105 101.5498 497.4035 101.5338 497.0415 101.5338 494.7615 101.5338 493.0605 102.2708 491.9355 103.7388 490.8105 105.2098 490.2485 107.1748 490.2485 109.6348L490.2485 118.5898 486.3325 118.5898 486.3325 98.1588 490.2485 98.1588 490.2485 102.1648C490.7875 100.8758 491.6955 99.8328 492.9695 99.0368 494.2455 98.2428 495.6035 97.8448 497.0415 97.8448 497.8235 97.8448 498.4665 97.9498 498.9785 98.1588L498.9785 101.7598zM518.0576 100.6348C516.2866 100.6348 514.8476 101.1378 513.7376 102.1428 512.6276 103.1478 512.0416 104.5798 511.9826 106.4408L523.8166 106.4408C523.8166 104.6398 523.2706 103.2218 522.1746 102.1878 521.0786 101.1528 519.7066 100.6348 518.0576 100.6348L518.0576 100.6348zM511.9366 109.4088C511.9666 110.2808 512.1106 111.0968 512.3656 111.8628 512.6206 112.6278 512.9956 113.3018 513.4906 113.8878 513.9856 114.4718 514.6206 114.9388 515.4026 115.2818 516.1826 115.6278 517.1416 115.7998 518.2826 115.7998 519.8116 115.7998 520.9746 115.4778 521.7706 114.8328 522.5646 114.1878 523.1266 113.4308 523.4576 112.5598L527.4166 112.5598C527.2376 113.4308 526.9076 114.2548 526.4276 115.0338 525.9466 115.8158 525.3166 116.5048 524.5366 117.1048 523.7576 117.7048 522.8416 118.1848 521.7916 118.5448 520.7416 118.9058 519.5716 119.0848 518.2826 119.0848 516.5736 119.0848 515.0716 118.7998 513.7826 118.2298 512.4916 117.6598 511.4276 116.8958 510.5866 115.9348 509.7476 114.9758 509.1166 113.8428 508.6986 112.5368 508.2776 111.2328 508.0666 109.8448 508.0666 108.3748 508.0666 106.8448 508.2916 105.4208 508.7426 104.0998 509.1916 102.7808 509.8446 101.6398 510.6996 100.6798 511.5556 99.7198 512.6046 98.9698 513.8496 98.4298 515.0946 97.8898 516.5276 97.6198 518.1466 97.6198 519.4666 97.6198 520.7036 97.8528 521.8606 98.3178 523.0146 98.7818 524.0206 99.4358 524.8736 100.2748 525.7296 101.1148 526.3966 102.0968 526.8776 103.2218 527.3576 104.3468 527.5976 105.5558 527.5976 106.8448 527.5976 107.1458 527.5896 107.5048 527.5746 107.9248 527.5586 108.3448 527.5076 108.8408 527.4166 109.4088L511.9366 109.4088zM540.0615 115.5752C541.1115 115.5752 542.0645 115.3802 542.9185 114.9892 543.7745 114.6002 544.4995 114.0832 545.1005 113.4372 545.7005 112.7922 546.1655 112.0352 546.4965 111.1652 546.8255 110.2952 546.9915 109.3642 546.9915 108.3752 546.9915 107.3852 546.8255 106.4552 546.4965 105.5852 546.1655 104.7152 545.7005 103.9502 545.1005 103.2902 544.4995 102.6302 543.7745 102.1042 542.9185 101.7152 542.0645 101.3252 541.1115 101.1302 540.0615 101.1302 539.0115 101.1302 538.0655 101.3252 537.2255 101.7152 536.3865 102.1042 535.6735 102.6302 535.0875 103.2902 534.5025 103.9502 534.0455 104.7152 533.7155 105.5852 533.3865 106.4552 533.2205 107.3852 533.2205 108.3752 533.2205 109.3642 533.3865 110.2952 533.7155 111.1652 534.0455 112.0352 534.5025 112.7922 535.0875 113.4372 535.6735 114.0832 536.3865 114.6002 537.2255 114.9892 538.0655 115.3802 539.0115 115.5752 540.0615 115.5752L540.0615 115.5752zM550.8615 98.1592L550.8615 118.5902 546.9915 118.5902 546.9915 115.0342C546.3325 116.2952 545.3495 117.2842 544.0435 118.0052 542.7395 118.7242 541.3365 119.0852 539.8365 119.0852 538.2755 119.0852 536.8505 118.8002 535.5615 118.2292 534.2705 117.6602 533.1685 116.8802 532.2525 115.8892 531.3375 114.8992 530.6265 113.7612 530.1165 112.4702 529.6065 111.1802 529.3505 109.8152 529.3505 108.3752 529.3505 106.9342 529.6065 105.5622 530.1165 104.2572 530.6265 102.9522 531.3375 101.8042 532.2525 100.8152 533.1685 99.8252 534.2705 99.0452 535.5615 98.4742 536.8505 97.9052 538.2755 97.6202 539.8365 97.6202 541.3365 97.6202 542.7395 97.9792 544.0435 98.7002 545.3495 99.4202 546.3325 100.4092 546.9915 101.6702L546.9915 98.1592 550.8615 98.1592zM569.9863 105.5849C569.8373 104.3249 569.3343 103.2679 568.4783 102.4119 567.6243 101.5579 566.2363 101.1299 564.3163 101.1299 563.2653 101.1299 562.3433 101.3249 561.5483 101.7149 560.7533 102.1049 560.0933 102.6379 559.5693 103.3129 559.0443 103.9869 558.6463 104.7609 558.3773 105.6299 558.1073 106.5009 557.9703 107.4149 557.9703 108.3749 557.9703 109.3349 558.0993 110.2499 558.3533 111.1199 558.6083 111.9899 559.0073 112.7549 559.5463 113.4149 560.0873 114.0749 560.7693 114.6009 561.5943 114.9889 562.4193 115.3799 563.4003 115.5749 564.5413 115.5749 566.2523 115.5749 567.5113 115.2149 568.3213 114.4949 569.1323 113.7739 569.7003 112.7999 570.0323 111.5689L573.9463 111.5689C573.7963 112.6199 573.4813 113.6029 573.0023 114.5179 572.5203 115.4329 571.8823 116.2279 571.0903 116.9019 570.2943 117.5769 569.3273 118.1099 568.1863 118.4999 567.0463 118.8899 565.7413 119.0849 564.2713 119.0849 562.5903 119.0849 561.1213 118.7839 559.8613 118.1849 558.6023 117.5849 557.5373 116.7899 556.6663 115.7999 555.7963 114.8099 555.1443 113.6699 554.7093 112.3799 554.2743 111.0909 554.0563 109.7549 554.0563 108.3749 554.0563 106.9949 554.2743 105.6599 554.7093 104.3699 555.1443 103.0799 555.7903 101.9329 556.6443 100.9269 557.4993 99.9229 558.5643 99.1199 559.8403 98.5209 561.1143 97.9199 562.5773 97.6199 564.2273 97.6199 565.8773 97.6199 567.2943 97.8529 568.4783 98.3169 569.6633 98.7819 570.6393 99.3829 571.4033 100.1169 572.1703 100.8529 572.7543 101.6999 573.1583 102.6589 573.5643 103.6199 573.8113 104.5949 573.9023 105.5849L569.9863 105.5849zM577.1855 87.0898L581.0995 87.0898 581.0995 101.7598C581.6995 100.4998 582.6155 99.4948 583.8445 98.7448 585.0745 97.9948 586.5605 97.6198 588.2995 97.6198 589.7415 97.6198 590.9695 97.8528 591.9915 98.3178 593.0105 98.7818 593.8205 99.4498 594.4195 100.3188 594.9905 101.1008 595.3955 101.9698 595.6355 102.9298 595.8745 103.8898 595.9955 105.0898 595.9955 106.5298L595.9955 118.5898 592.0815 118.5898 592.0815 107.7448C592.0815 106.8158 591.9915 105.9388 591.8105 105.1118 591.6295 104.2878 591.3365 103.5828 590.9325 102.9968 590.5285 102.4118 589.9955 101.9478 589.3355 101.6028 588.6745 101.2578 587.8655 101.0848 586.9065 101.0848 585.9155 101.0848 585.0605 101.2798 584.3405 101.6698 583.6205 102.0598 583.0205 102.5768 582.5405 103.2218 582.0605 103.8678 581.6995 104.6108 581.4605 105.4498 581.2195 106.2898 581.0995 107.1588 581.0995 108.0598L581.0995 118.5898 577.1855 118.5898 577.1855 87.0898zM618.54 115.5752C619.59 115.5752 620.542 115.3802 621.396 114.9892 622.253 114.6002 622.978 114.0832 623.579 113.4372 624.179 112.7922 624.644 112.0352 624.975 111.1652 625.304 110.2952 625.47 109.3642 625.47 108.3752 625.47 107.3852 625.304 106.4552 624.975 105.5852 624.644 104.7152 624.179 103.9502 623.579 103.2902 622.978 102.6302 622.253 102.1042 621.396 101.7152 620.542 101.3252 619.59 101.1302 618.54 101.1302 617.49 101.1302 616.545 101.3252 615.704 101.7152 614.865 102.1042 614.153 102.6302 613.566 103.2902 612.982 103.9502 612.524 104.7152 612.195 105.5852 611.865 106.4552 611.699 107.3852 611.699 108.3752 611.699 109.3642 611.865 110.2952 612.195 111.1652 612.524 112.0352 612.982 112.7922 613.566 113.4372 614.153 114.0832 614.865 114.6002 615.704 114.9892 616.545 115.3802 617.49 115.5752 618.54 115.5752M618.54 119.0852C616.92 119.0852 615.449 118.8002 614.129 118.2292 612.809 117.6602 611.684 116.8802 610.754 115.8892 609.824 114.8992 609.104 113.7612 608.595 112.4702 608.084 111.1802 607.829 109.8152 607.829 108.3752 607.829 106.9342 608.084 105.5622 608.595 104.2572 609.104 102.9522 609.824 101.8042 610.754 100.8152 611.684 99.8252 612.809 99.0452 614.129 98.4742 615.449 97.9052 616.92 97.6202 618.54 97.6202 620.189 97.6202 621.674 97.9052 622.995 98.4742 624.315 99.0452 625.448 99.8252 626.392 100.8152 627.337 101.8042 628.064 102.9522 628.574 104.2572 629.084 105.5622 629.341 106.9342 629.341 108.3752 629.341 109.8152 629.084 111.1802 628.574 112.4702 628.064 113.7612 627.337 114.8992 626.392 115.8892 625.448 116.8802 624.315 117.6602 622.995 118.2292 621.674 118.8002 620.189 119.0852 618.54 119.0852M643.5605 118.5898C643.1695 118.6498 642.6525 118.7098 642.0075 118.7708 641.3615 118.8288 640.7085 118.8608 640.0495 118.8608 639.4195 118.8608 638.7295 118.7998 637.9795 118.6798 637.2295 118.5608 636.5325 118.2678 635.8865 117.8018 635.2415 117.3368 634.7025 116.6258 634.2665 115.6648 633.8325 114.7048 633.6155 113.3858 633.6155 111.7048L633.6155 101.4438 629.8355 101.4438 629.8355 98.1588 633.6155 98.1588 633.6155 91.2748 637.5295 91.2748 637.5295 98.1588 642.8405 98.1588 642.8405 101.4438 637.5295 101.4438 637.5295 110.8188C637.5295 111.8068 637.6125 112.5908 637.7785 113.1748 637.9415 113.7578 638.1745 114.2058 638.4745 114.5208 638.7745 114.8338 639.1275 115.0358 639.5325 115.1258 639.9375 115.2158 640.3955 115.2598 640.9045 115.2598L642.3235 115.2598C642.8475 115.2598 643.2605 115.2148 643.5605 115.1248L643.5605 118.5898zM645.4951 87.0898L649.4101 87.0898 649.4101 101.7598C650.0091 100.4998 650.9241 99.4948 652.1541 98.7448 653.3841 97.9948 654.8701 97.6198 656.6101 97.6198 658.0501 97.6198 659.2791 97.8528 660.3001 98.3178 661.3201 98.7818 662.1291 99.4498 662.7291 100.3188 663.2991 101.1008 663.7041 101.9698 663.9451 102.9298 664.1851 103.8898 664.3061 105.0898 664.3061 106.5298L664.3061 118.5898 660.3911 118.5898 660.3911 107.7448C660.3911 106.8158 660.3001 105.9388 660.1201 105.1118 659.9401 104.2878 659.6461 103.5828 659.2421 102.9968 658.8371 102.4118 658.3041 101.9478 657.6451 101.6028 656.9851 101.2578 656.1741 101.0848 655.2161 101.0848 654.2241 101.0848 653.3701 101.2798 652.6491 101.6698 651.9311 102.0598 651.3291 102.5768 650.8491 103.2218 650.3701 103.8678 650.0091 104.6108 649.7701 105.4498 649.5291 106.2898 649.4101 107.1588 649.4101 108.0598L649.4101 118.5898 645.4951 118.5898 645.4951 87.0898zM677.083 100.6348C675.312 100.6348 673.874 101.1378 672.765 102.1428 671.653 103.1478 671.069 104.5798 671.008 106.4408L682.844 106.4408C682.844 104.6398 682.296 103.2218 681.202 102.1878 680.106 101.1528 678.732 100.6348 677.083 100.6348L677.083 100.6348zM670.963 109.4088C670.994 110.2808 671.137 111.0968 671.391 111.8628 671.646 112.6278 672.021 113.3018 672.516 113.8878 673.012 114.4718 673.648 114.9388 674.429 115.2818 675.208 115.6278 676.169 115.7998 677.309 115.7998 678.838 115.7998 680 115.4778 680.796 114.8328 681.591 114.1878 682.153 113.4308 682.483 112.5598L686.444 112.5598C686.265 113.4308 685.933 114.2548 685.453 115.0338 684.974 115.8158 684.344 116.5048 683.564 117.1048 682.783 117.7048 681.869 118.1848 680.819 118.5448 679.769 118.9058 678.599 119.0848 677.309 119.0848 675.6 119.0848 674.099 118.7998 672.809 118.2298 671.519 117.6598 670.453 116.8958 669.613 115.9348 668.774 114.9758 668.144 113.8428 667.725 112.5368 667.304 111.2328 667.094 109.8448 667.094 108.3748 667.094 106.8448 667.319 105.4208 667.77 104.0998 668.219 102.7808 668.871 101.6398 669.726 100.6798 670.582 99.7198 671.632 98.9698 672.877 98.4298 674.12 97.8898 675.554 97.6198 677.174 97.6198 678.494 97.6198 679.731 97.8528 680.887 98.3178 682.041 98.7818 683.046 99.4358 683.9 100.2748 684.757 101.1148 685.424 102.0968 685.903 103.2218 686.383 104.3468 686.624 105.5558 686.624 106.8448 686.624 107.1458 686.616 107.5048 686.601 107.9248 686.586 108.3448 686.533 108.8408 686.444 109.4088L670.963 109.4088zM702.6895 101.7598C702.2685 101.6698 701.9315 101.6108 701.6755 101.5798 701.4205 101.5498 701.1135 101.5338 700.7525 101.5338 698.4735 101.5338 696.7705 102.2708 695.6455 103.7388 694.5205 105.2098 693.9585 107.1748 693.9585 109.6348L693.9585 118.5898 690.0435 118.5898 690.0435 98.1588 693.9585 98.1588 693.9585 102.1648C694.4995 100.8758 695.4065 99.8328 696.6815 99.0368 697.9565 98.2428 699.3145 97.8448 700.7525 97.8448 701.5335 97.8448 702.1785 97.9498 702.6895 98.1588L702.6895 101.7598z" mask="url(#nhw-logo-full-b)"/>
  </g>
</svg>
